<svg xmlns="http://www.w3.org/2000/svg" viewBox="0 0 1529.4 119" role="img" aria-label="Masachi DC" fill="currentColor">
  <title>Masachi DC</title>
  <path d="M0 2L23 2L68 68L113 2L136 2L136 117L113 117L113 40.7L72.6 100L63.4 100L23 40.7L23 117L0 117Z"/>
  <path d="M190 117L251.5 2L269.5 2L331 117L306.2 117L260.5 31.5L214.8 117Z"/>
  <path d="M473 30.5C473 15.2 451.6 0 425.5 0C399.4 0 378 14.4 378 32C378 81.8 453.5 60.4 453.5 85.5C453.5 93.8 443 100 429 100C410 100 394.5 88.1 394.5 79.5L374 89C374 100.4 397.8 119 423.5 119C458.3 119 477 107.6 477 86.5C477 39.9 402.5 58.4 402.5 33.5C402.5 26.5 412.8 20 424 20C438 20 452 28.8 452 37.5Z"/>
  <path d="M521 117L582.5 2L600.5 2L662 117L637.2 117L591.5 31.5L545.8 117Z"/>
  <path d="M833.4 37.5A65.5 59.5 0 1 0 833.4 81.5L810.1 75.5A41 40 0 1 1 810.1 43.5Z"/>
  <path d="M890 2L913 2L913 48.5L975.5 48.5L975.5 2L998.5 2L998.5 117L975.5 117L975.5 67.5L913 67.5L913 117L890 117Z"/>
  <path d="M1072 2L1095 2L1095 117L1072 117Z"/>
  <path d="M1233 2L1289 2C1325.9 2 1350.5 25 1350.5 59.5C1350.5 94 1325.9 117 1289 117L1233 117ZM1256 21L1256 98L1288 98C1308.5 98 1326 80.3 1326 59.5C1326 38.7 1308.5 21 1288 21Z"/>
  <path d="M1529.4 37.5A65.5 59.5 0 1 0 1529.4 81.5L1506.1 75.5A41 40 0 1 1 1506.1 43.5Z"/>
</svg>
